<svg id="Layer_1" data-name="Layer 1" xmlns="http://www.w3.org/2000/svg" xmlns:xlink="http://www.w3.org/1999/xlink" viewBox="0 0 65.16 82.35"><defs><style>.cls-1,.cls-2{fill:none;}.cls-1{clip-rule:evenodd;}.cls-3{clip-path:url(#clip-path);}.cls-4{clip-path:url(#clip-path-2);}.cls-5{fill:#ac242a;}.cls-6{clip-path:url(#clip-path-3);}.cls-7{fill:#fff;}.cls-8{clip-path:url(#clip-path-5);}.cls-9{clip-path:url(#clip-path-7);}.cls-10{clip-path:url(#clip-path-9);}.cls-11{clip-path:url(#clip-path-11);}.cls-12{clip-path:url(#clip-path-13);}.cls-13{clip-path:url(#clip-path-15);}.cls-14{clip-path:url(#clip-path-17);}</style><clipPath id="clip-path" transform="translate(4.58 4.68)"><path class="cls-1" d="M28.21.32A27.85,27.85,0,0,0,6.16,45.1L28,72.68,49.83,45.1a27.69,27.69,0,0,0,5.74-17A27,27,0,0,0,28.21.32"/></clipPath><clipPath id="clip-path-2" transform="translate(4.58 4.68)"><rect class="cls-2" x="-442.58" y="-192.34" width="1888" height="1233"/></clipPath><clipPath id="clip-path-3" transform="translate(4.58 4.68)"><path class="cls-1" d="M39.69,35.84a2.43,2.43,0,1,0,2.43,2.43,2.2,2.2,0,0,0-2.43-2.43"/></clipPath><clipPath id="clip-path-5" transform="translate(4.58 4.68)"><path class="cls-1" d="M16.74,35.84a2.43,2.43,0,1,0,2.43,2.43,2.45,2.45,0,0,0-2.43-2.43"/></clipPath><clipPath id="clip-path-7" transform="translate(4.58 4.68)"><path class="cls-1" d="M45.86,41.79,28.21,63.41,10.57,41.79A22.9,22.9,0,0,1,5.71,28.12a22.28,22.28,0,1,1,44.56,0,21.2,21.2,0,0,1-4.41,13.68M28.21,1.87a26.08,26.08,0,0,0-26,26A25.25,25.25,0,0,0,7.7,43.78L28.21,69.59,48.73,43.78A26.19,26.19,0,0,0,54.24,27.9a26.22,26.22,0,0,0-26-26"/></clipPath><clipPath id="clip-path-9" transform="translate(4.58 4.68)"><path class="cls-1" d="M24,13.34c-.66,0-1.1.35-1.1.71h2.21a1.45,1.45,0,0,0-1.1-.71"/></clipPath><clipPath id="clip-path-11" transform="translate(4.58 4.68)"><path class="cls-1" d="M28.21,13.34c-.66,0-1.1.35-1.1.71h2.21c0-.35-.44-.71-1.1-.71"/></clipPath><clipPath id="clip-path-13" transform="translate(4.58 4.68)"><path class="cls-1" d="M32.63,13.34c-.66,0-1.1.35-1.1.71h2.21a1.45,1.45,0,0,0-1.1-.71"/></clipPath><clipPath id="clip-path-15" transform="translate(4.58 4.68)"><path class="cls-1" d="M41.45,16.43s-4.19-.88-13.24-.88-13,.88-13,.88L14.1,25s3.53-1.1,14.34-1.1S42.55,25,42.55,25Z"/></clipPath><clipPath id="clip-path-17" transform="translate(4.58 4.68)"><path class="cls-1" d="M25.13,50.18V27.9h2V50.84h2.21V27.9h2V50.18a11.32,11.32,0,0,0,2.21-.88V26.13A40.45,40.45,0,0,0,28,25.47a31.46,31.46,0,0,0-5.29.66V49.29c.66.22,1.54.66,2.43.88"/></clipPath></defs><title>logo-truckstop</title><g class="cls-3"><g class="cls-4"><rect class="cls-5" width="65.16" height="82.35"/></g></g><g class="cls-6"><g class="cls-4"><rect class="cls-7" x="36.84" y="35.51" width="14.88" height="14.85"/></g></g><g class="cls-8"><g class="cls-4"><rect class="cls-7" x="13.9" y="35.51" width="14.85" height="14.85"/></g></g><g class="cls-9"><g class="cls-4"><rect class="cls-7" x="1.76" y="1.54" width="62.06" height="77.72"/></g></g><g class="cls-10"><g class="cls-4"><rect class="cls-7" x="22.5" y="13.01" width="12.21" height="10.71"/></g></g><g class="cls-11"><g class="cls-4"><rect class="cls-7" x="26.69" y="13.01" width="12.21" height="10.71"/></g></g><g class="cls-12"><g class="cls-4"><rect class="cls-7" x="31.1" y="13.01" width="12.21" height="10.71"/></g></g><g class="cls-13"><g class="cls-4"><rect class="cls-7" x="13.68" y="15.22" width="38.46" height="19.49"/></g></g><g class="cls-14"><g class="cls-4"><rect class="cls-7" x="22.28" y="25.15" width="20.81" height="35.37"/></g></g></svg>